# Blender v2.79 (sub 0) OBJ File: ''
# www.blender.org
o Cylinder.003
v 0.000000 0.500000 -1.000000
v 0.309018 -0.500000 -0.951056
v 0.000000 -0.500000 -1.000000
v 0.309018 0.500000 -0.951056
v 0.587786 -0.500000 -0.809018
v 0.587786 0.500000 -0.809018
v 0.809018 -0.500000 -0.587786
v 0.809018 0.500000 -0.587786
v 0.951056 -0.500000 -0.309016
v 0.951056 0.500000 -0.309016
v 1.000000 -0.500000 -0.000000
v 1.000000 0.500000 0.000000
v 0.951056 -0.500000 0.309018
v 0.951056 0.500000 0.309018
v 0.809018 -0.500000 0.587786
v 0.809018 0.500000 0.587786
v 0.587786 -0.500000 0.809018
v 0.587786 0.500000 0.809018
v 0.309016 -0.500000 0.951056
v 0.309016 0.500000 0.951056
v 0.000000 -0.500000 1.000000
v 0.000000 0.500000 1.000000
v -0.309018 -0.500000 0.951056
v -0.309018 0.500000 0.951056
v -0.587786 -0.500000 0.809016
v -0.587786 0.500000 0.809016
v -0.809018 -0.500000 0.587784
v -0.809018 0.500000 0.587784
v -0.951056 -0.500000 0.309016
v -0.951056 0.500000 0.309016
v -1.000000 -0.500000 -0.000000
v -1.000000 0.500000 0.000000
v -0.951056 -0.500000 -0.309018
v -0.951056 0.500000 -0.309018
v -0.809016 -0.500000 -0.587786
v -0.809016 0.500000 -0.587786
v -0.587784 -0.500000 -0.809018
v -0.587784 0.500000 -0.809018
v -0.309016 -0.500000 -0.951056
v -0.309016 0.500000 -0.951056
vn 0.1564 0.0000 -0.9877
vn 0.4540 0.0000 -0.8910
vn 0.7071 0.0000 -0.7071
vn 0.8910 0.0000 -0.4540
vn 0.9877 -0.0000 -0.1564
vn 0.9877 0.0000 0.1564
vn 0.8910 -0.0000 0.4540
vn 0.7071 0.0000 0.7071
vn 0.4540 0.0000 0.8910
vn 0.1564 0.0000 0.9877
vn -0.1564 0.0000 0.9877
vn -0.4540 0.0000 0.8910
vn -0.7071 0.0000 0.7071
vn -0.8910 0.0000 0.4540
vn -0.9877 0.0000 0.1564
vn -0.9877 -0.0000 -0.1564
vn -0.8910 0.0000 -0.4540
vn -0.7071 0.0000 -0.7071
vn -0.0000 1.0000 0.0000
vn -0.4540 0.0000 -0.8910
vn -0.1564 0.0000 -0.9877
vn -0.0000 -1.0000 -0.0000
s 1
f 1//1 2//1 3//1
f 4//2 5//2 2//2
f 6//3 7//3 5//3
f 8//4 9//4 7//4
f 10//5 11//5 9//5
f 12//6 13//6 11//6
f 14//7 15//7 13//7
f 16//8 17//8 15//8
f 18//9 19//9 17//9
f 20//10 21//10 19//10
f 22//11 23//11 21//11
f 24//12 25//12 23//12
f 26//13 27//13 25//13
f 28//14 29//14 27//14
f 30//15 31//15 29//15
f 32//16 33//16 31//16
f 34//17 35//17 33//17
f 36//18 37//18 35//18
f 30//19 22//19 14//19
f 38//20 39//20 37//20
f 40//21 3//21 39//21
f 15//22 31//22 39//22
f 1//1 4//1 2//1
f 4//2 6//2 5//2
f 6//3 8//3 7//3
f 8//4 10//4 9//4
f 10//5 12//5 11//5
f 12//6 14//6 13//6
f 14//7 16//7 15//7
f 16//8 18//8 17//8
f 18//9 20//9 19//9
f 20//10 22//10 21//10
f 22//11 24//11 23//11
f 24//12 26//12 25//12
f 26//13 28//13 27//13
f 28//14 30//14 29//14
f 30//15 32//15 31//15
f 32//16 34//16 33//16
f 34//17 36//17 35//17
f 36//18 38//18 37//18
f 6//19 4//19 1//19
f 1//19 40//19 38//19
f 38//19 36//19 34//19
f 34//19 32//19 30//19
f 30//19 28//19 26//19
f 26//19 24//19 30//19
f 24//19 22//19 30//19
f 22//19 20//19 14//19
f 20//19 18//19 14//19
f 18//19 16//19 14//19
f 14//19 12//19 10//19
f 10//19 8//19 14//19
f 8//19 6//19 14//19
f 6//19 1//19 38//19
f 38//19 34//19 30//19
f 6//19 38//19 14//19
f 38//19 30//19 14//19
f 38//20 40//20 39//20
f 40//21 1//21 3//21
f 39//22 3//22 2//22
f 2//22 5//22 39//22
f 5//22 7//22 39//22
f 7//22 9//22 15//22
f 9//22 11//22 15//22
f 11//22 13//22 15//22
f 15//22 17//22 19//22
f 19//22 21//22 23//22
f 23//22 25//22 27//22
f 27//22 29//22 31//22
f 31//22 33//22 35//22
f 35//22 37//22 39//22
f 15//22 19//22 23//22
f 23//22 27//22 31//22
f 31//22 35//22 39//22
f 39//22 7//22 15//22
f 15//22 23//22 31//22
